HIERARCHY
ROOT Hips
{
	OFFSET 0.00000 0.00000 0.00000
	CHANNELS 6 Xposition Yposition Zposition Zrotation Yrotation Xrotation 
	JOINT LHipJoint
	{
		OFFSET 0 0 0
		CHANNELS 3 Zrotation Yrotation Xrotation
		JOINT LeftUpLeg
		{
			OFFSET 1.54859 -1.61379 0.86856
			CHANNELS 3 Zrotation Yrotation Xrotation
			JOINT LeftLeg
			{
				OFFSET 2.25087 -6.18423 0.00000
				CHANNELS 3 Zrotation Yrotation Xrotation
				JOINT LeftFoot
				{
					OFFSET 2.40328 -6.60297 0.00000
					CHANNELS 3 Zrotation Yrotation Xrotation
					JOINT LeftToeBase
					{
						OFFSET 0.17435 -0.47901 2.02453
						CHANNELS 3 Zrotation Yrotation Xrotation
						End Site
						{
							OFFSET 0.00000 -0.00000 1.04844
						}
					}
				}
			}
		}
	}
	JOINT RHipJoint
	{
		OFFSET 0 0 0
		CHANNELS 3 Zrotation Yrotation Xrotation
		JOINT RightUpLeg
		{
			OFFSET -1.54669 -1.61379 0.86856
			CHANNELS 3 Zrotation Yrotation Xrotation
			JOINT RightLeg
			{
				OFFSET -2.28132 -6.26789 0.00000
				CHANNELS 3 Zrotation Yrotation Xrotation
				JOINT RightFoot
				{
					OFFSET -2.51636 -6.91365 0.00000
					CHANNELS 3 Zrotation Yrotation Xrotation
					JOINT RightToeBase
					{
						OFFSET -0.15124 -0.41552 2.21090
						CHANNELS 3 Zrotation Yrotation Xrotation
						End Site
						{
							OFFSET -0.00000 -0.00000 1.13399
						}
					}
				}
			}
		}
	}
	JOINT LowerBack
	{
		OFFSET 0 0 0
		CHANNELS 3 Zrotation Yrotation Xrotation
		JOINT Spine
		{
			OFFSET -0.04287 2.26161 -0.25690
			CHANNELS 3 Zrotation Yrotation Xrotation
			JOINT Spine1
			{
				OFFSET 0.02248 2.28395 -0.10140
				CHANNELS 3 Zrotation Yrotation Xrotation
				JOINT Neck
				{
					OFFSET 0 0 0
					CHANNELS 3 Zrotation Yrotation Xrotation
					JOINT Neck1
					{
						OFFSET -0.11644 1.38496 0.11345
						CHANNELS 3 Zrotation Yrotation Xrotation
						JOINT Head
						{
							OFFSET 0.29383 1.36600 0.06642
							CHANNELS 3 Zrotation Yrotation Xrotation
							End Site
							{
								OFFSET 0.11075 1.41395 -0.00294
							}
						}
					}
				}
				JOINT LeftShoulder
				{
					OFFSET 0 0 0
					CHANNELS 3 Zrotation Yrotation Xrotation
					JOINT LeftArm
					{
						OFFSET 3.51628 0.59542 -0.30346
						CHANNELS 3 Zrotation Yrotation Xrotation
						JOINT LeftForeArm
						{
							OFFSET 4.76405 -0.00000 0.00000
							CHANNELS 3 Zrotation Yrotation Xrotation
							JOINT LeftHand
							{
								OFFSET 3.13759 -0.00000 -0.00000
								CHANNELS 3 Zrotation Yrotation Xrotation
								JOINT LeftFingerBase
								{
									OFFSET 0 0 0
									CHANNELS 3 Zrotation Yrotation Xrotation
									JOINT LeftHandIndex1
									{
										OFFSET 0.73226 -0.00000 -0.00000
										CHANNELS 3 Zrotation Yrotation Xrotation
										End Site
										{
											OFFSET 0.59037 -0.00000 -0.00000
										}
									}
								}
								JOINT LThumb
								{
									OFFSET 0 0 0
									CHANNELS 3 Zrotation Yrotation Xrotation
									End Site
									{
										OFFSET 0.59938 -0.00000 0.59938
									}
								}
							}
						}
					}
				}
				JOINT RightShoulder
				{
					OFFSET 0 0 0
					CHANNELS 3 Zrotation Yrotation Xrotation
					JOINT RightArm
					{
						OFFSET -3.30990 0.84213 -0.36430
						CHANNELS 3 Zrotation Yrotation Xrotation
						JOINT RightForeArm
						{
							OFFSET -5.10161 -0.00000 -0.00000
							CHANNELS 3 Zrotation Yrotation Xrotation
							JOINT RightHand
							{
								OFFSET -3.23267 -0.00000 -0.00000
								CHANNELS 3 Zrotation Yrotation Xrotation
								JOINT RightFingerBase
								{
									OFFSET 0 0 0
									CHANNELS 3 Zrotation Yrotation Xrotation
									JOINT RightHandIndex1
									{
										OFFSET -0.70200 -0.00000 -0.00000
										CHANNELS 3 Zrotation Yrotation Xrotation
										End Site
										{
											OFFSET -0.56597 -0.00000 -0.00000
										}
									}
								}
								JOINT RThumb
								{
									OFFSET 0 0 0
									CHANNELS 3 Zrotation Yrotation Xrotation
									End Site
									{
										OFFSET -0.57461 -0.00000 0.57461
									}
								}
							}
						}
					}
				}
			}
		}
	}
}
MOTION
Frames: 11
Frame Time: .0083333
-7.7237 14.5404 5.5410 -42.0513 64.8453 -16.3724 0.0000 0.0000 0.0000 -25.9566 -4.4474 -76.7397 7.5938 15.8122 51.0860 -0.0382 -6.3236 -3.3311 0.4474 -4.2913 -11.8976 0.0000 0.0000 0.0000 17.2319 -14.1493 19.4324 0.0000 -0.0000 0.0000 -0.4067 -6.5730 11.5613 -7.4344 15.6871 -50.4989 8.2971 3.6000 24.6653 3.2795 7.1982 11.3869 -2.8300 4.0426 -0.4519 -3.2343 -2.8369 -6.6554 14.6689 -0.9657 -19.3530 5.1720 -0.6736 -4.4981 0.0000 0.0000 0.0000 -79.8670 35.9488 51.8800 26.5127 -37.7105 -9.1995 -0.0000 0.0000 -19.1119 12.8721 27.3137 5.9861 -7.1250 0.0000 -0.0000 -19.0536 56.8594 -5.6792 0.0000 0.0000 0.0000 77.9758 29.1128 -8.7838 -50.6279 53.2456 -26.6764 0.0000 -0.0000 -39.0372 -22.9793 33.3982 -13.1387 7.1250 -0.0000 -0.0000 5.1675 5.4999 5.6611
-7.1835 14.5214 5.7148 -45.8917 65.0130 -20.0190 0.0000 0.0000 0.0000 -25.5047 -4.6503 -75.9653 6.7892 15.1518 48.0724 -0.0092 -5.3635 -3.4616 0.4504 -4.3056 -11.9380 0.0000 0.0000 0.0000 18.3180 -14.1398 22.1825 0.0000 0.0000 0.0000 -0.2633 -8.0658 10.0231 -6.7483 15.1162 -47.9159 8.8894 3.0338 24.0487 3.1451 6.5435 11.1422 -3.1199 3.7416 -0.3990 -4.1251 -2.9476 -5.9350 16.6655 -0.8065 -19.3688 5.9888 -0.6584 -4.5786 0.0000 0.0000 0.0000 -81.1575 35.1638 49.9684 26.5065 -37.7045 -9.1957 -0.0000 0.0000 -19.7330 13.5964 27.2974 6.3293 -7.1250 0.0000 -0.0000 -18.3045 56.9946 -5.5057 0.0000 0.0000 0.0000 80.7544 26.8708 -7.8373 -54.6188 54.6966 -29.9046 0.0000 -0.0000 -39.3959 -23.3496 32.9592 -13.2169 7.1250 -0.0000 -0.0000 4.8900 5.1367 5.3269
-6.6528 14.4927 5.8886 -49.4578 64.8399 -23.5584 0.0000 0.0000 0.0000 -24.9598 -4.5571 -75.1371 6.1953 14.6150 45.7608 0.0200 -3.9359 -3.5341 0.6847 -5.2903 -14.7383 0.0000 0.0000 0.0000 19.5786 -13.9644 25.0641 0.0000 -0.0000 0.0000 -0.2023 -8.7674 9.4363 -6.1300 14.5532 -45.5013 8.5113 2.3855 23.4072 3.7556 5.6121 11.0913 -2.0237 3.2553 -0.3609 -6.1430 -2.2742 -5.8163 17.7262 0.3057 -19.1945 6.6896 -0.0135 -4.6264 0.0000 -0.0000 0.0000 -84.9559 34.1945 46.3555 26.1421 -37.3487 -8.9737 -0.0000 0.0000 -19.6633 14.2944 27.0198 6.6027 -7.1250 0.0000 -0.0000 -17.4187 56.8752 -5.1769 0.0000 -0.0000 0.0000 81.7892 24.7940 -5.5285 -58.3321 55.8488 -32.9570 0.0000 -0.0000 -40.8270 -24.0348 32.6362 -13.5231 7.1250 -0.0000 -0.0000 4.4551 4.9644 4.8380
-6.1253 14.4611 6.0558 -52.9154 64.4149 -27.0962 0.0000 0.0000 0.0000 -24.0946 -4.3752 -73.9214 5.8826 14.3136 44.5089 0.0423 -2.6713 -3.8398 0.4252 -4.1851 -11.5979 0.0000 0.0000 0.0000 21.2365 -13.7413 27.8482 0.0000 -0.0000 0.0000 -0.3664 -7.3620 11.2019 -6.7077 15.0807 -47.7598 8.4412 1.7887 22.9299 4.1774 4.8143 11.0646 -1.3398 2.8542 -0.2766 -6.9578 -0.6933 -7.1486 17.0859 2.5662 -18.9932 6.5854 1.2987 -4.6386 0.0000 0.0000 0.0000 -87.7395 32.8036 43.5515 25.7768 -36.9874 -8.7530 -0.0000 0.0000 -19.6639 15.3304 26.8824 7.0660 -7.1250 0.0000 -0.0000 -16.2710 56.9593 -4.8561 0.0000 0.0000 0.0000 82.8186 22.5357 -3.5552 -62.7827 57.0070 -36.6659 0.0000 -0.0000 -43.3867 -23.8849 32.4890 -13.3796 7.1250 -0.0000 -0.0000 4.5143 4.7786 4.8894
-5.6003 14.4234 6.2198 -56.0365 63.9041 -30.3841 0.0000 0.0000 0.0000 -23.2602 -4.1033 -72.9831 5.8508 14.2822 44.3799 0.0364 -1.7312 -3.4191 0.0753 -1.7706 -4.8720 0.0000 0.0000 0.0000 23.9024 -11.7906 24.9038 -0.3563 -3.8346 10.6119 -0.1287 -6.1590 7.1896 -6.6014 14.9868 -47.3501 8.7244 1.2654 22.6276 4.2551 4.1777 11.0293 -1.2652 2.5534 -0.1977 -7.1120 -0.2645 -7.0077 17.1878 3.0609 -18.2961 6.6205 1.5518 -4.5153 -0.0000 0.0000 0.0000 -89.0739 30.9976 41.8572 25.3117 -36.5209 -8.4747 -0.0000 0.0000 -19.7136 16.8345 26.9069 7.7969 -7.1250 0.0000 -0.0000 -14.7241 57.3007 -4.5020 -0.0000 0.0000 0.0000 84.3242 20.0107 -2.2444 -67.9760 58.0854 -41.0493 0.0000 -0.0000 -46.0898 -22.9044 32.2709 -12.7124 7.1250 -0.0000 -0.0000 5.0283 4.3330 5.4140
-5.0937 14.3587 6.3855 -58.3783 63.5705 -32.9423 0.0000 0.0000 0.0000 -23.1215 -3.8251 -71.7950 6.1376 14.5604 45.5314 0.1004 -1.0956 -5.6996 0.5420 4.7170 13.1030 0.0000 0.0000 0.0000 25.0581 -11.5087 22.8242 -1.1698 -6.8656 19.3177 0.0217 -5.0279 2.7428 -3.4296 11.3600 -33.5038 8.7725 0.8069 22.4421 4.2083 3.5810 10.9162 -1.2150 2.2558 -0.2716 -8.4616 -0.5785 -5.9872 18.5913 2.8448 -18.7232 7.3585 1.4035 -4.7880 0.0000 -0.0000 0.0000 -89.9048 28.9439 40.6751 24.6257 -35.8190 -8.0699 -0.0000 0.0000 -19.5571 18.3210 26.9927 8.5470 -7.1250 0.0000 -0.0000 -13.2109 57.7052 -4.1572 0.0000 -0.0000 0.0000 85.7887 17.1849 -1.1833 -73.1117 58.8944 -45.4286 0.0000 -0.0000 -47.7103 -22.9776 31.9117 -12.6334 7.1250 -0.0000 -0.0000 4.9310 3.9819 5.2806
-4.5699 14.3246 6.5335 -59.6146 63.5400 -34.3866 0.0000 0.0000 0.0000 -23.2709 -3.7221 -70.0719 6.6656 15.0437 47.5980 0.2607 1.2339 -10.1745 1.3822 7.4392 21.0233 0.0000 0.0000 0.0000 25.2951 -12.6628 19.8819 -2.3360 -9.5334 27.4785 -0.0307 -0.0836 3.2812 -7.3893 15.6511 -50.3316 8.4387 0.3335 21.8917 3.9505 2.8263 10.9104 -1.1300 1.8816 -0.0732 -8.8395 -0.3778 -5.7114 19.4068 3.2641 -18.7723 7.7053 1.5883 -4.9128 -0.0000 -0.0000 0.0000 -90.4828 26.5982 39.6116 23.9763 -35.1392 -7.6929 -0.0000 0.0000 -19.2270 19.5399 27.4231 9.2831 -7.1250 0.0000 -0.0000 -12.1528 58.4013 -4.0216 -0.0000 -0.0000 0.0000 87.0975 14.4784 0.0163 -77.9795 59.4469 -49.6093 0.0000 -0.0000 -49.2234 -19.8533 31.5975 -10.7128 7.1250 -0.0000 -0.0000 6.6514 3.0068 7.0378
-4.0538 14.2883 6.6760 -60.2412 63.6930 -35.1142 0.0000 0.0000 0.0000 -23.0668 -4.0576 -68.5024 7.3239 15.5987 50.0891 0.4336 3.5873 -14.2760 1.4840 7.6966 21.7964 0.0000 0.0000 0.0000 25.2120 -12.6274 17.6428 -3.8754 -11.9927 35.7061 -0.0129 -0.3299 2.0531 -6.6241 15.0070 -47.4377 7.9772 -0.0102 21.4628 3.5113 2.2209 10.7571 -1.2132 1.5646 -0.0817 -7.2003 0.9206 -7.6225 18.3912 4.9318 -17.7615 7.0049 2.5119 -4.5085 -0.0000 0.0000 0.0000 -90.3486 24.0743 39.0945 23.2392 -34.3494 -7.2728 -0.0000 0.0000 -18.7213 20.5612 28.0856 10.0149 -7.1250 0.0000 -0.0000 -11.4222 59.2955 -4.0211 -0.0000 0.0000 0.0000 88.4430 11.6440 0.8759 -82.8671 59.8069 -53.8268 0.0000 -0.0000 -51.5630 -21.4495 30.7818 -11.3689 7.1250 -0.0000 -0.0000 5.6324 2.5000 5.9009
-3.5381 14.2641 6.8098 -60.4074 64.2476 -35.2602 0.0000 0.0000 0.0000 -22.5791 -5.0318 -66.7640 8.0030 16.1215 52.5736 0.6610 2.5231 -16.4766 1.3278 7.2973 20.5992 0.0000 0.0000 0.0000 24.5112 -13.1069 14.6354 -5.7816 -14.2133 44.0989 -0.0023 -0.2002 0.8544 -6.0577 14.4840 -45.2127 7.1387 -0.3531 21.0547 3.0564 1.5519 10.5013 -1.0948 1.1926 -0.2312 -6.8125 1.4467 -7.8413 18.5994 5.8230 -18.1181 6.9976 2.9448 -4.7029 0.0000 0.0000 0.0000 -90.2253 21.2662 38.4392 22.2023 -33.2049 -6.6963 -0.0000 0.0000 -17.8217 21.4925 28.3602 10.5943 -7.1250 0.0000 -0.0000 -10.5552 59.7893 -3.8363 0.0000 0.0000 0.0000 89.5071 8.7133 1.7634 -87.6730 59.9795 -57.9849 0.0000 -0.0000 -54.5423 -20.5209 29.3138 -10.3845 7.1250 -0.0000 -0.0000 5.9755 0.8155 6.0930
-3.0229 14.2495 6.9386 -59.6914 65.2770 -34.5299 0.0000 0.0000 0.0000 -22.5465 -6.2440 -64.9441 8.6244 16.5599 54.7819 0.9698 -1.1936 -18.2507 1.7267 8.2721 23.5435 0.0000 0.0000 0.0000 22.9767 -14.6777 10.8738 -8.0290 -16.1405 52.6669 -0.0003 -0.1354 -0.3845 -8.0417 16.1498 -52.7127 5.5540 -0.6431 20.7672 2.6568 0.8349 10.2010 -0.4894 0.7657 -0.5010 -6.7583 1.7564 -7.7420 18.7068 6.2979 -18.1896 7.0119 3.1694 -4.8104 0.0000 0.0000 0.0000 -90.2616 18.3222 37.5845 21.0789 -31.9204 -6.0916 -0.0000 0.0000 -16.4798 22.2172 28.3200 10.9659 -7.1250 0.0000 -0.0000 -9.7270 59.9209 -3.5623 0.0000 0.0000 0.0000 90.1586 5.8385 2.6594 -92.1950 59.9818 -61.9008 0.0000 -0.0000 -57.6137 -20.4475 28.1070 -9.9625 7.1250 -0.0000 -0.0000 5.8734 -0.4329 5.8598
-2.5167 14.2344 7.0686 -58.3875 66.4753 -33.4354 0.0000 0.0000 0.0000 -23.1570 -7.0310 -63.1384 9.1969 16.9328 56.7686 1.1585 -1.4356 -19.9218 1.8488 8.5437 24.3780 0.0000 0.0000 0.0000 21.2438 -14.9703 7.6320 -10.5235 -17.6939 61.2242 0.0095 -1.7383 -0.7798 -7.5010 15.7397 -50.7447 3.7909 -0.8750 20.5831 2.1805 0.1790 10.0873 0.1304 0.3816 -0.5814 -7.0890 1.8420 -7.5436 19.0297 6.6019 -18.7896 7.1861 3.3088 -5.0859 -0.0000 0.0000 0.0000 -90.0468 14.8803 36.7243 19.8345 -30.4425 -5.4473 -0.0000 0.0000 -14.8590 22.8417 28.1270 11.2313 -7.1250 0.0000 -0.0000 -8.9231 59.8740 -3.2549 -0.0000 0.0000 0.0000 90.8990 3.2436 3.3663 -96.4753 59.8410 -65.6047 0.0000 -0.0000 -59.9058 -20.5370 27.3572 -9.7678 7.1250 -0.0000 -0.0000 5.7343 -1.1854 5.6430
